<svg width="120" height="59" viewBox="0 0 1485 732" fill="none" xmlns="http://www.w3.org/2000/svg">
<path d="M773.874 249.838C810.231 291.838 834.713 556.838 822.891 556.838C811.07 556.838 797.367 369.838 773.874 371.338C750.381 372.838 734.849 556.838 722.619 556.838C710.388 556.838 741.432 284.338 773.874 249.838Z" fill="black"/>
<path d="M874.874 241.838C911.231 283.838 935.713 548.838 923.891 548.838C912.07 548.838 898.367 361.838 874.874 363.338C851.381 364.838 835.849 548.838 823.619 548.838C811.388 548.838 842.432 276.338 874.874 241.838Z" fill="black"/>
<path d="M773.874 241.838C810.231 283.838 834.713 548.838 822.891 548.838C811.07 548.838 797.367 361.838 773.874 363.338C750.381 364.838 734.849 548.838 722.619 548.838C710.388 548.838 741.432 276.338 773.874 241.838Z" fill="black"/>
<path d="M468.383 242.838C505.084 284.838 529.796 549.838 517.863 549.838C505.93 549.838 492.097 362.838 468.383 364.338C444.668 365.838 428.991 549.838 416.644 549.838C404.298 549.838 435.635 277.338 468.383 242.838Z" fill="black"/>
<path d="M187.394 729.338C223.89 724.338 293.853 749.002 358.4 705.888C619.898 531.223 861.394 595.386 1184.89 671.386C1353.39 710.971 1548.39 470.338 1398.89 417.838C1264.77 370.739 1165.39 518.338 1193.89 598.837C1214.39 578.338 1223.39 560.338 1224.89 539.338C1213.81 501.838 1213.89 417.838 1417.39 467.337C1448.32 474.86 1450.39 531.837 1376.89 598.837C1288.01 679.864 1239.03 653.29 1157.89 632.424C933.894 519.386 625.293 577.605 344.897 645.338C385.105 153.063 323.337 113.042 243.898 105.393C-149.102 55.8877 19.3971 597.385 154.898 392.887C271.81 216.442 267.388 175.48 138.399 274.387C49.8988 342.247 45.8802 209.709 104.377 169.878C232.877 82.379 344.388 279.387 243.898 324.888C486.894 1071.34 70.389 394.887 187.394 729.338Z" fill="black"/>
<path d="M569.383 242.838C606.084 284.838 630.796 549.838 618.863 549.838C606.93 549.838 593.097 362.838 569.383 364.338C545.668 365.838 529.991 549.838 517.644 549.838C505.298 549.838 536.635 277.338 569.383 242.838Z" fill="black"/>
<path d="M671.383 242.838C708.084 284.838 732.796 549.838 720.863 549.838C708.93 549.838 695.097 362.838 671.383 364.338C647.668 365.838 631.991 549.838 619.644 549.838C607.298 549.838 638.635 277.338 671.383 242.838Z" fill="black"/>
<path d="M1180.38 241.838C1206.39 284.338 1214.03 442.879 1220.71 483.838C1231.52 550.211 1223.62 539.432 1192.39 583.338C1162.89 491.838 1232.89 542.838 1180.38 363.338C1156.67 364.838 1140.99 548.838 1128.64 548.838C1116.3 548.838 1147.63 276.338 1180.38 241.838Z" fill="black"/>
<path d="M1079.87 241.838C1116.23 283.838 1140.71 548.838 1128.89 548.838C1117.07 548.838 1103.37 361.838 1079.87 363.338C1056.38 364.838 1040.85 548.838 1028.62 548.838C1016.39 548.838 1047.43 276.338 1079.87 241.838Z" fill="black"/>
<path d="M977.383 241.838C1014.08 283.838 1038.8 548.838 1026.86 548.838C1014.93 548.838 1001.1 361.838 977.383 363.338C953.668 364.838 937.991 548.838 925.644 548.838C913.298 548.838 944.635 276.338 977.383 241.838Z" fill="black"/>
<path d="M410.894 143.338C363.894 143.338 374.393 71.338 422.394 102.338C394.394 9.33799 303.902 175.338 340.91 210.082C602.897 27.5016 1060.6 -184.152 1365.28 282.258C1403.37 340.57 1464.35 245.197 1471.29 199.4C1480.12 141.134 1446.28 84.6566 1382.39 149.171C1374.23 162.432 1396.08 179.406 1387.61 206.952C1332.2 266.17 1311.63 88.2881 1440.86 107.252C1476.98 112.552 1491.37 172.583 1482.31 227.209C1461.39 353.349 1369.29 386.953 1344.89 338.849C1095.89 -152.152 624.918 55.1305 746.895 81.8391C1054.39 149.171 327.65 234.339 319.894 239.848C306.894 249.082 316.394 245.849 303.902 272.265C300.894 141.838 348.893 73.3388 374.393 59.8362C472.894 7.67839 462.614 143.338 410.894 143.338Z" fill="black"/>
</svg>
